<svg width="25" height="10" viewBox="0 0 25 10" fill="none" xmlns="http://www.w3.org/2000/svg">
<g style="mix-blend-mode:multiply">
<path d="M3.53809 10H3.02539V5.07129H1.02246V10H0.509766V0.477539H1.02246V4.61328H3.02539V0.477539H3.53809V10ZM4.70703 2.4668C4.70703 2.31641 4.70931 2.16146 4.71387 2.00195C4.72298 1.84245 4.74349 1.68978 4.77539 1.54395C4.80729 1.39811 4.8597 1.26139 4.93262 1.13379C5.00553 1.00163 5.10579 0.887695 5.2334 0.791992C5.36556 0.691732 5.5319 0.614258 5.73242 0.55957C5.9375 0.504883 6.18815 0.477539 6.48438 0.477539H7.37988V0.935547H6.62793C6.38184 0.935547 6.16992 0.956055 5.99219 0.99707C5.81901 1.03809 5.67318 1.10872 5.55469 1.20898C5.44076 1.30469 5.35645 1.43685 5.30176 1.60547C5.24707 1.77409 5.21973 1.986 5.21973 2.24121V4.8252H7.30469V5.2832H5.21973V10H4.70703V2.4668ZM8.23438 0.477539H8.74707V10H8.23438V0.477539ZM12.4727 2.27539V0.477539H12.9854V10H12.4727V4.81152C12.4727 4.26009 12.418 3.77474 12.3086 3.35547C12.2038 2.9362 12.0602 2.57389 11.8779 2.26855C11.6956 1.96322 11.4814 1.71029 11.2354 1.50977C10.9938 1.30924 10.7363 1.15202 10.4629 1.03809V10H9.9502V0.477539H10.3604C10.5791 0.545898 10.7887 0.637044 10.9893 0.750977C11.1943 0.860352 11.3857 0.992513 11.5635 1.14746C11.7458 1.29785 11.9098 1.46875 12.0557 1.66016C12.2015 1.84701 12.3268 2.05208 12.4316 2.27539H12.4727ZM17.21 8.01074C17.21 8.16113 17.2077 8.31608 17.2031 8.47559C17.1986 8.63053 17.1781 8.7832 17.1416 8.93359C17.1097 9.07943 17.0573 9.21842 16.9844 9.35059C16.916 9.47819 16.8158 9.58984 16.6836 9.68555C16.556 9.78125 16.3896 9.85872 16.1846 9.91797C15.984 9.97266 15.738 10 15.4463 10H14.1816V0.477539H15.4463C15.738 0.477539 15.984 0.504883 16.1846 0.55957C16.3896 0.614258 16.556 0.691732 16.6836 0.791992C16.8158 0.887695 16.916 1.00163 16.9844 1.13379C17.0573 1.26139 17.1097 1.39811 17.1416 1.54395C17.1781 1.68978 17.1986 1.84245 17.2031 2.00195C17.2077 2.16146 17.21 2.31641 17.21 2.4668V8.01074ZM16.6973 2.24121C16.6973 1.986 16.6699 1.77409 16.6152 1.60547C16.5605 1.43685 16.4762 1.30469 16.3623 1.20898C16.2484 1.10872 16.1025 1.03809 15.9248 0.99707C15.7516 0.956055 15.542 0.935547 15.2959 0.935547H14.6943V9.54199H15.2959C15.542 9.54199 15.7516 9.52376 15.9248 9.4873C16.1025 9.44629 16.2484 9.37793 16.3623 9.28223C16.4762 9.18197 16.5605 9.04753 16.6152 8.87891C16.6699 8.71029 16.6973 8.49837 16.6973 8.24316V2.24121ZM18.7549 4.61328H20.751V5.07129H18.7549V9.54199H20.915V10H18.2422V2.4668C18.2422 2.31641 18.2445 2.16146 18.249 2.00195C18.2581 1.84245 18.2786 1.68978 18.3105 1.54395C18.3424 1.39811 18.3949 1.26139 18.4678 1.13379C18.5407 1.00163 18.641 0.887695 18.7686 0.791992C18.9007 0.691732 19.0671 0.614258 19.2676 0.55957C19.4727 0.504883 19.7233 0.477539 20.0195 0.477539H20.7441V0.935547H20.1631C19.9215 0.935547 19.7119 0.956055 19.5342 0.99707C19.3564 1.03809 19.2083 1.10872 19.0898 1.20898C18.9759 1.30469 18.8916 1.43685 18.8369 1.60547C18.7822 1.77409 18.7549 1.986 18.7549 2.24121V4.61328ZM24.7295 0.99707C24.7295 1.54395 24.7113 2.03613 24.6748 2.47363C24.6429 2.90658 24.5905 3.2985 24.5176 3.64941C24.4492 3.99577 24.3581 4.30339 24.2441 4.57227C24.1302 4.84115 23.9935 5.0804 23.834 5.29004C23.8522 5.36296 23.8796 5.48828 23.916 5.66602C23.957 5.83919 24.0049 6.04427 24.0596 6.28125C24.1143 6.51367 24.1735 6.76888 24.2373 7.04688C24.3011 7.32031 24.3649 7.59603 24.4287 7.87402C24.4925 8.14746 24.554 8.41178 24.6133 8.66699C24.6725 8.9222 24.7249 9.15007 24.7705 9.35059C24.8161 9.54655 24.8662 9.76302 24.9209 10H24.374L23.4238 5.72754C23.2552 5.87337 23.0706 6.00553 22.8701 6.12402C22.6696 6.23796 22.4486 6.34505 22.207 6.44531V10H21.7012V2.4668C21.7012 2.31641 21.7035 2.16146 21.708 2.00195C21.7171 1.84245 21.7376 1.68978 21.7695 1.54395C21.8014 1.39811 21.8538 1.26139 21.9268 1.13379C21.9997 1.00163 22.0999 0.887695 22.2275 0.791992C22.3597 0.691732 22.526 0.614258 22.7266 0.55957C22.9316 0.504883 23.1823 0.477539 23.4785 0.477539H24.7295V0.99707ZM22.207 5.88477C22.3346 5.83008 22.4736 5.76628 22.624 5.69336C22.7744 5.61589 22.9225 5.51335 23.0684 5.38574C23.2188 5.25814 23.3623 5.09635 23.499 4.90039C23.6403 4.69987 23.7633 4.4515 23.8682 4.15527C23.973 3.85449 24.0573 3.49447 24.1211 3.0752C24.1849 2.65137 24.2168 2.15234 24.2168 1.57812V0.935547H23.6152C23.3737 0.935547 23.1641 0.956055 22.9863 0.99707C22.8086 1.03809 22.6605 1.10872 22.542 1.20898C22.4281 1.30469 22.3438 1.43685 22.2891 1.60547C22.2344 1.77409 22.207 1.986 22.207 2.24121V5.88477Z" fill="black"/>
</g>
</svg>
